<svg width="608" height="188" viewBox="0 0 608 188" fill="none" xmlns="http://www.w3.org/2000/svg">
<path d="M34 42.4C25.08 43.2 17.68 43.6 11.8 43.6C7.88 43.6 5 42.68 3.16 40.84C1.32 39 0.4 36.12 0.4 32.2V13C0.4 8.8 1.34 5.76 3.22 3.88C5.14 1.96 8.2 0.999997 12.4 0.999997H34V9.4H14.8C12.4 9.4 11.2 10.6 11.2 13V32.2C11.2 33.12 11.46 33.86 11.98 34.42C12.54 34.94 13.24 35.2 14.08 35.2C14.92 35.2 15.84 35.2 16.84 35.2C17.84 35.16 18.88 35.12 19.96 35.08C21.04 35.04 22.12 35 23.2 34.96C24.32 34.92 25.74 34.84 27.46 34.72C29.22 34.6 31.4 34.46 34 34.3V42.4ZM65.807 12.4C65.807 10 64.607 8.8 62.207 8.8H52.007C49.607 8.8 48.407 10 48.407 12.4V31.6C48.407 34 49.607 35.2 52.007 35.2H62.207C64.607 35.2 65.807 34 65.807 31.6V12.4ZM76.607 31.6C76.607 35.8 75.647 38.86 73.727 40.78C71.847 42.66 68.807 43.6 64.607 43.6H49.607C45.407 43.6 42.347 42.66 40.427 40.78C38.547 38.86 37.607 35.8 37.607 31.6V12.4C37.607 8.2 38.547 5.16 40.427 3.28C42.347 1.36 45.407 0.399998 49.607 0.399998H64.607C68.807 0.399998 71.847 1.36 73.727 3.28C75.647 5.16 76.607 8.2 76.607 12.4V31.6ZM119.235 43H107.835L93.4352 17.8V43H82.6352V0.999997H94.0352L108.435 26.2V0.999997H119.235V43ZM146.863 43H136.063V9.4H123.463V0.999997H159.463V9.4H146.863V43ZM163.67 0.999997H188.87C193.07 0.999997 196.11 1.96 197.99 3.88C199.91 5.76 200.87 8.8 200.87 13V18.4C200.87 21.72 200.31 24.3 199.19 26.14C198.11 27.98 196.37 29.2 193.97 29.8L201.47 43H189.77L182.87 30.4H174.47V43H163.67V0.999997ZM190.07 13C190.07 10.6 188.87 9.4 186.47 9.4H174.47V22H186.47C188.87 22 190.07 20.8 190.07 18.4V13ZM233.854 12.4C233.854 10 232.654 8.8 230.254 8.8H220.054C217.654 8.8 216.454 10 216.454 12.4V31.6C216.454 34 217.654 35.2 220.054 35.2H230.254C232.654 35.2 233.854 34 233.854 31.6V12.4ZM244.654 31.6C244.654 35.8 243.694 38.86 241.774 40.78C239.894 42.66 236.854 43.6 232.654 43.6H217.654C213.454 43.6 210.394 42.66 208.474 40.78C206.594 38.86 205.654 35.8 205.654 31.6V12.4C205.654 8.2 206.594 5.16 208.474 3.28C210.394 1.36 213.454 0.399998 217.654 0.399998H232.654C236.854 0.399998 239.894 1.36 241.774 3.28C243.694 5.16 244.654 8.2 244.654 12.4V31.6ZM261.482 34.6H283.382V43H250.682V0.999997H261.482V34.6ZM320.896 43H287.596V0.999997H320.896V9.4H298.396V17.5H316.096V25.9H298.396V34.6H320.896V43ZM276.836 73C281.356 73 284.776 74.18 287.096 76.54C289.456 78.86 290.636 82.28 290.636 86.8V101.2C290.636 105.72 289.456 109.16 287.096 111.52C284.776 113.84 281.356 115 276.836 115H253.436V73H276.836ZM279.836 86.8C279.836 83.2 278.036 81.4 274.436 81.4H264.236V106.6H274.436C278.036 106.6 279.836 104.8 279.836 101.2V86.8ZM329.92 115H296.62V73H329.92V81.4H307.42V89.5H325.12V97.9H307.42V106.6H329.92V115ZM376.094 73C380.614 73 384.034 74.18 386.354 76.54C388.714 78.86 389.894 82.28 389.894 86.8V101.2C389.894 105.72 388.714 109.16 386.354 111.52C384.034 113.84 380.614 115 376.094 115H352.694V73H376.094ZM379.094 86.8C379.094 83.2 377.294 81.4 373.694 81.4H363.494V106.6H373.694C377.294 106.6 379.094 104.8 379.094 101.2V86.8ZM415.677 115H394.077V106.6H399.477V81.4H394.077V73H415.677V81.4H410.277V106.6H415.677V115ZM400.677 71.14L404.277 60.94H415.077L408.477 71.14H400.677ZM438.773 102.4L448.973 73H460.673L444.773 115H432.773L416.873 73H428.573L438.773 102.4ZM483.47 115H461.87V106.6H467.27V81.4H461.87V73H483.47V81.4H478.07V106.6H483.47V115ZM512.266 73C516.786 73 520.206 74.18 522.526 76.54C524.886 78.86 526.066 82.28 526.066 86.8V101.2C526.066 105.72 524.886 109.16 522.526 111.52C520.206 113.84 516.786 115 512.266 115H488.866V73H512.266ZM515.266 86.8C515.266 83.2 513.466 81.4 509.866 81.4H499.666V106.6H509.866C513.466 106.6 515.266 104.8 515.266 101.2V86.8ZM537.733 115H526.033L541.933 73H553.933L569.833 115H558.133L555.433 107.5H540.433L537.733 115ZM543.133 99.7H552.733L547.933 85.6L543.133 99.7ZM571.57 106.3C582.53 106.9 589.95 107.2 593.83 107.2C594.75 107.2 595.47 106.94 595.99 106.42C596.55 105.86 596.83 105.12 596.83 104.2V98.8H583.03C578.83 98.8 575.77 97.86 573.85 95.98C571.97 94.06 571.03 91 571.03 86.8V85C571.03 80.8 571.97 77.76 573.85 75.88C575.77 73.96 578.83 73 583.03 73H604.09V81.4H585.43C583.03 81.4 581.83 82.6 581.83 85V86.2C581.83 88.6 583.03 89.8 585.43 89.8H596.23C600.15 89.8 603.03 90.72 604.87 92.56C606.71 94.4 607.63 97.28 607.63 101.2V104.2C607.63 108.12 606.71 111 604.87 112.84C603.03 114.68 600.15 115.6 596.23 115.6C594.19 115.6 592.03 115.56 589.75 115.48L584.23 115.24C580.15 115.04 575.93 114.76 571.57 114.4V106.3ZM1.6 145H26.8C31 145 34.04 145.96 35.92 147.88C37.84 149.76 38.8 152.8 38.8 157V163C38.8 167.2 37.84 170.26 35.92 172.18C34.04 174.06 31 175 26.8 175H12.4V187H1.6V145ZM28 157C28 154.6 26.8 153.4 24.4 153.4H12.4V166.6H24.4C26.8 166.6 28 165.4 28 163V157ZM77.4977 187H44.1977V145H77.4977V153.4H54.9977V161.5H72.6977V169.9H54.9977V178.6H77.4977V187ZM81.0236 178.3C91.9836 178.9 99.4036 179.2 103.284 179.2C104.204 179.2 104.924 178.94 105.444 178.42C106.004 177.86 106.284 177.12 106.284 176.2V170.8H92.4836C88.2836 170.8 85.2236 169.86 83.3036 167.98C81.4236 166.06 80.4836 163 80.4836 158.8V157C80.4836 152.8 81.4236 149.76 83.3036 147.88C85.2236 145.96 88.2836 145 92.4836 145H113.544V153.4H94.8836C92.4836 153.4 91.2836 154.6 91.2836 157V158.2C91.2836 160.6 92.4836 161.8 94.8836 161.8H105.684C109.604 161.8 112.484 162.72 114.324 164.56C116.164 166.4 117.084 169.28 117.084 173.2V176.2C117.084 180.12 116.164 183 114.324 184.84C112.484 186.68 109.604 187.6 105.684 187.6C103.644 187.6 101.484 187.56 99.2036 187.48L93.6836 187.24C89.6036 187.04 85.3836 186.76 81.0236 186.4V178.3ZM121.219 178.3C132.179 178.9 139.599 179.2 143.479 179.2C144.399 179.2 145.119 178.94 145.639 178.42C146.199 177.86 146.479 177.12 146.479 176.2V170.8H132.679C128.479 170.8 125.419 169.86 123.499 167.98C121.619 166.06 120.679 163 120.679 158.8V157C120.679 152.8 121.619 149.76 123.499 147.88C125.419 145.96 128.479 145 132.679 145H153.739V153.4H135.079C132.679 153.4 131.479 154.6 131.479 157V158.2C131.479 160.6 132.679 161.8 135.079 161.8H145.879C149.799 161.8 152.679 162.72 154.519 164.56C156.359 166.4 157.279 169.28 157.279 173.2V176.2C157.279 180.12 156.359 183 154.519 184.84C152.679 186.68 149.799 187.6 145.879 187.6C143.839 187.6 141.679 187.56 139.399 187.48L133.879 187.24C129.799 187.04 125.579 186.76 121.219 186.4V178.3ZM189.674 156.4C189.674 154 188.474 152.8 186.074 152.8H175.874C173.474 152.8 172.274 154 172.274 156.4V175.6C172.274 178 173.474 179.2 175.874 179.2H186.074C188.474 179.2 189.674 178 189.674 175.6V156.4ZM200.474 175.6C200.474 179.8 199.514 182.86 197.594 184.78C195.714 186.66 192.674 187.6 188.474 187.6H173.474C169.274 187.6 166.214 186.66 164.294 184.78C162.414 182.86 161.474 179.8 161.474 175.6V156.4C161.474 152.2 162.414 149.16 164.294 147.28C166.214 145.36 169.274 144.4 173.474 144.4H188.474C192.674 144.4 195.714 145.36 197.594 147.28C199.514 149.16 200.474 152.2 200.474 156.4V175.6ZM212.83 187H201.13L217.03 145H229.03L244.93 187H233.23L230.53 179.5H215.53L212.83 187ZM218.23 171.7H227.83L223.03 157.6L218.23 171.7ZM267.728 187H246.128V178.6H251.528V153.4H246.128V145H267.728V153.4H262.328V178.6H267.728V187ZM271.863 178.3C282.823 178.9 290.243 179.2 294.123 179.2C295.043 179.2 295.763 178.94 296.283 178.42C296.843 177.86 297.123 177.12 297.123 176.2V170.8H283.323C279.123 170.8 276.063 169.86 274.143 167.98C272.263 166.06 271.323 163 271.323 158.8V157C271.323 152.8 272.263 149.76 274.143 147.88C276.063 145.96 279.123 145 283.323 145H304.383V153.4H285.723C283.323 153.4 282.123 154.6 282.123 157V158.2C282.123 160.6 283.323 161.8 285.723 161.8H296.523C300.443 161.8 303.323 162.72 305.163 164.56C307.003 166.4 307.923 169.28 307.923 173.2V176.2C307.923 180.12 307.003 183 305.163 184.84C303.323 186.68 300.443 187.6 296.523 187.6C294.483 187.6 292.323 187.56 290.043 187.48L284.523 187.24C280.443 187.04 276.223 186.76 271.863 186.4V178.3Z" fill="#0E9595"/>
</svg>
